<svg id="visual" viewBox="0 0 900 600" width="900" height="600" xmlns="http://www.w3.org/2000/svg" xmlns:xlink="http://www.w3.org/1999/xlink" version="1.1"><g stroke-width="1" stroke-linejoin="bevel"><path d="M388 306L317 325L363 367Z" fill="#ff2400" stroke="#ff2400"></path><path d="M317 325L334 425L363 367Z" fill="#ff2400" stroke="#ff2400"></path><path d="M388 306L331 215L317 325Z" fill="#690000" stroke="#690000"></path><path d="M331 215L239 307L317 325Z" fill="#da1601" stroke="#da1601"></path><path d="M317 325L216 435L334 425Z" fill="#7c0000" stroke="#7c0000"></path><path d="M484 239L433 230L388 306Z" fill="#da1601" stroke="#da1601"></path><path d="M388 306L433 230L331 215Z" fill="#a50000" stroke="#a50000"></path><path d="M484 239L388 306L519 270Z" fill="#7c0000" stroke="#7c0000"></path><path d="M491 429L388 306L363 367Z" fill="#c80e01" stroke="#c80e01"></path><path d="M334 425L491 429L363 367Z" fill="#000000" stroke="#000000"></path><path d="M491 429L519 270L388 306Z" fill="#da1601" stroke="#da1601"></path><path d="M239 307L216 435L317 325Z" fill="#900000" stroke="#900000"></path><path d="M334 425L361 505L491 429Z" fill="#ff2400" stroke="#ff2400"></path><path d="M323 536L361 505L334 425Z" fill="#da1601" stroke="#da1601"></path><path d="M361 505L508 473L491 429Z" fill="#ff2400" stroke="#ff2400"></path><path d="M491 429L592 398L519 270Z" fill="#570000" stroke="#570000"></path><path d="M215 496L323 536L334 425Z" fill="#da1601" stroke="#da1601"></path><path d="M361 505L399 600L508 473Z" fill="#000000" stroke="#000000"></path><path d="M331 215L184 197L239 307Z" fill="#ff2400" stroke="#ff2400"></path><path d="M239 307L83 398L216 435Z" fill="#da1601" stroke="#da1601"></path><path d="M216 435L215 496L334 425Z" fill="#a50000" stroke="#a50000"></path><path d="M83 398L215 496L216 435Z" fill="#ff2400" stroke="#ff2400"></path><path d="M383 68L266 115L331 215Z" fill="#900000" stroke="#900000"></path><path d="M331 215L266 115L184 197Z" fill="#b60601" stroke="#b60601"></path><path d="M383 68L331 215L433 230Z" fill="#7c0000" stroke="#7c0000"></path><path d="M566 462L592 398L491 429Z" fill="#da1601" stroke="#da1601"></path><path d="M503 600L566 462L508 473Z" fill="#ff2400" stroke="#ff2400"></path><path d="M508 473L566 462L491 429Z" fill="#ed1d01" stroke="#ed1d01"></path><path d="M592 398L617 313L519 270Z" fill="#7c0000" stroke="#7c0000"></path><path d="M634 183L532 111L484 239Z" fill="#900000" stroke="#900000"></path><path d="M532 111L383 68L433 230Z" fill="#7c0000" stroke="#7c0000"></path><path d="M532 111L433 230L484 239Z" fill="#ff2400" stroke="#ff2400"></path><path d="M209 600L333 600L323 536Z" fill="#b60601" stroke="#b60601"></path><path d="M323 536L399 600L361 505Z" fill="#900000" stroke="#900000"></path><path d="M333 600L399 600L323 536Z" fill="#ff2400" stroke="#ff2400"></path><path d="M94 207L82 289L184 197Z" fill="#570000" stroke="#570000"></path><path d="M184 197L82 289L239 307Z" fill="#ff2400" stroke="#ff2400"></path><path d="M634 183L484 239L519 270Z" fill="#ed1d01" stroke="#ed1d01"></path><path d="M82 289L83 398L239 307Z" fill="#a50000" stroke="#a50000"></path><path d="M215 496L209 600L323 536Z" fill="#da1601" stroke="#da1601"></path><path d="M101 93L94 207L184 197Z" fill="#c80e01" stroke="#c80e01"></path><path d="M236 0L197 83L266 115Z" fill="#da1601" stroke="#da1601"></path><path d="M266 115L197 83L184 197Z" fill="#c80e01" stroke="#c80e01"></path><path d="M64 514L209 600L215 496Z" fill="#570000" stroke="#570000"></path><path d="M399 600L503 600L508 473Z" fill="#000000" stroke="#000000"></path><path d="M617 313L634 183L519 270Z" fill="#570000" stroke="#570000"></path><path d="M634 183L578 100L532 111Z" fill="#a50000" stroke="#a50000"></path><path d="M490 0L427 0L383 68Z" fill="#ff2400" stroke="#ff2400"></path><path d="M592 398L672 371L617 313Z" fill="#000000" stroke="#000000"></path><path d="M617 313L716 293L634 183Z" fill="#a50000" stroke="#a50000"></path><path d="M697 487L672 371L592 398Z" fill="#ff2400" stroke="#ff2400"></path><path d="M697 487L592 398L566 462Z" fill="#da1601" stroke="#da1601"></path><path d="M383 68L309 0L266 115Z" fill="#da1601" stroke="#da1601"></path><path d="M427 0L309 0L383 68Z" fill="#c80e01" stroke="#c80e01"></path><path d="M490 0L383 68L532 111Z" fill="#7c0000" stroke="#7c0000"></path><path d="M0 480L64 514L83 398Z" fill="#900000" stroke="#900000"></path><path d="M83 398L64 514L215 496Z" fill="#da1601" stroke="#da1601"></path><path d="M93 0L101 93L197 83Z" fill="#ed1d01" stroke="#ed1d01"></path><path d="M197 83L101 93L184 197Z" fill="#690000" stroke="#690000"></path><path d="M0 198L0 287L82 289Z" fill="#000000" stroke="#000000"></path><path d="M309 0L236 0L266 115Z" fill="#7c0000" stroke="#7c0000"></path><path d="M583 0L490 0L532 111Z" fill="#a50000" stroke="#a50000"></path><path d="M0 198L82 289L94 207Z" fill="#570000" stroke="#570000"></path><path d="M82 289L0 389L83 398Z" fill="#900000" stroke="#900000"></path><path d="M0 287L0 389L82 289Z" fill="#000000" stroke="#000000"></path><path d="M672 371L716 293L617 313Z" fill="#b60601" stroke="#b60601"></path><path d="M725 0L583 0L578 100Z" fill="#7c0000" stroke="#7c0000"></path><path d="M637 600L697 487L566 462Z" fill="#a50000" stroke="#a50000"></path><path d="M806 436L817 299L716 293Z" fill="#7c0000" stroke="#7c0000"></path><path d="M101 93L0 198L94 207Z" fill="#ed1d01" stroke="#ed1d01"></path><path d="M0 389L0 480L83 398Z" fill="#ff2400" stroke="#ff2400"></path><path d="M64 514L61 600L209 600Z" fill="#000000" stroke="#000000"></path><path d="M503 600L637 600L566 462Z" fill="#b60601" stroke="#b60601"></path><path d="M724 110L578 100L634 183Z" fill="#b60601" stroke="#b60601"></path><path d="M578 100L583 0L532 111Z" fill="#b60601" stroke="#b60601"></path><path d="M716 293L732 194L634 183Z" fill="#c80e01" stroke="#c80e01"></path><path d="M810 228L732 194L716 293Z" fill="#570000" stroke="#570000"></path><path d="M0 600L61 600L64 514Z" fill="#a50000" stroke="#a50000"></path><path d="M236 0L93 0L197 83Z" fill="#900000" stroke="#900000"></path><path d="M101 93L0 78L0 198Z" fill="#690000" stroke="#690000"></path><path d="M732 194L724 110L634 183Z" fill="#ff2400" stroke="#ff2400"></path><path d="M637 600L691 600L697 487Z" fill="#b60601" stroke="#b60601"></path><path d="M697 487L761 488L672 371Z" fill="#570000" stroke="#570000"></path><path d="M93 0L0 78L101 93Z" fill="#690000" stroke="#690000"></path><path d="M691 600L761 488L697 487Z" fill="#da1601" stroke="#da1601"></path><path d="M732 194L812 124L724 110Z" fill="#900000" stroke="#900000"></path><path d="M0 480L0 600L64 514Z" fill="#c80e01" stroke="#c80e01"></path><path d="M806 436L716 293L672 371Z" fill="#a50000" stroke="#a50000"></path><path d="M761 488L806 436L672 371Z" fill="#7c0000" stroke="#7c0000"></path><path d="M900 503L806 436L761 488Z" fill="#ff2400" stroke="#ff2400"></path><path d="M817 299L810 228L716 293Z" fill="#690000" stroke="#690000"></path><path d="M93 0L0 0L0 78Z" fill="#ed1d01" stroke="#ed1d01"></path><path d="M691 600L768 600L761 488Z" fill="#900000" stroke="#900000"></path><path d="M812 124L725 0L724 110Z" fill="#000000" stroke="#000000"></path><path d="M724 110L725 0L578 100Z" fill="#7c0000" stroke="#7c0000"></path><path d="M810 228L812 124L732 194Z" fill="#900000" stroke="#900000"></path><path d="M900 187L812 124L810 228Z" fill="#000000" stroke="#000000"></path><path d="M900 385L900 282L817 299Z" fill="#ff2400" stroke="#ff2400"></path><path d="M817 299L900 282L810 228Z" fill="#da1601" stroke="#da1601"></path><path d="M900 385L817 299L806 436Z" fill="#c80e01" stroke="#c80e01"></path><path d="M900 503L900 385L806 436Z" fill="#da1601" stroke="#da1601"></path><path d="M900 282L900 187L810 228Z" fill="#ed1d01" stroke="#ed1d01"></path><path d="M812 124L836 0L725 0Z" fill="#570000" stroke="#570000"></path><path d="M768 600L900 503L761 488Z" fill="#900000" stroke="#900000"></path><path d="M900 187L900 138L812 124Z" fill="#570000" stroke="#570000"></path><path d="M900 138L836 0L812 124Z" fill="#da1601" stroke="#da1601"></path><path d="M768 600L900 600L900 503Z" fill="#ed1d01" stroke="#ed1d01"></path><path d="M900 138L900 0L836 0Z" fill="#570000" stroke="#570000"></path></g></svg>