<?xml version="1.0" standalone="no"?><svg xmlns="http://www.w3.org/2000/svg" viewBox="0 0 1440 320"><path fill="#ffffff" fill-opacity="1" d="M0,288L6.2,282.7C12.3,277,25,267,37,245.3C49.2,224,62,192,74,154.7C86.2,117,98,75,111,101.3C123.1,128,135,224,148,245.3C160,267,172,213,185,192C196.9,171,209,181,222,176C233.8,171,246,149,258,154.7C270.8,160,283,192,295,197.3C307.7,203,320,181,332,149.3C344.6,117,357,75,369,96C381.5,117,394,203,406,213.3C418.5,224,431,160,443,122.7C455.4,85,468,75,480,90.7C492.3,107,505,149,517,176C529.2,203,542,213,554,186.7C566.2,160,578,96,591,101.3C603.1,107,615,181,628,224C640,267,652,277,665,256C676.9,235,689,181,702,154.7C713.8,128,726,128,738,117.3C750.8,107,763,85,775,117.3C787.7,149,800,235,812,250.7C824.6,267,837,213,849,192C861.5,171,874,181,886,208C898.5,235,911,277,923,272C935.4,267,948,213,960,170.7C972.3,128,985,96,997,96C1009.2,96,1022,128,1034,144C1046.2,160,1058,160,1071,138.7C1083.1,117,1095,75,1108,69.3C1120,64,1132,96,1145,117.3C1156.9,139,1169,149,1182,160C1193.8,171,1206,181,1218,192C1230.8,203,1243,213,1255,224C1267.7,235,1280,245,1292,245.3C1304.6,245,1317,235,1329,240C1341.5,245,1354,267,1366,256C1378.5,245,1391,203,1403,170.7C1415.4,139,1428,117,1434,106.7L1440,96L1440,320L1433.8,320C1427.7,320,1415,320,1403,320C1390.8,320,1378,320,1366,320C1353.8,320,1342,320,1329,320C1316.9,320,1305,320,1292,320C1280,320,1268,320,1255,320C1243.1,320,1231,320,1218,320C1206.2,320,1194,320,1182,320C1169.2,320,1157,320,1145,320C1132.3,320,1120,320,1108,320C1095.4,320,1083,320,1071,320C1058.5,320,1046,320,1034,320C1021.5,320,1009,320,997,320C984.6,320,972,320,960,320C947.7,320,935,320,923,320C910.8,320,898,320,886,320C873.8,320,862,320,849,320C836.9,320,825,320,812,320C800,320,788,320,775,320C763.1,320,751,320,738,320C726.2,320,714,320,702,320C689.2,320,677,320,665,320C652.3,320,640,320,628,320C615.4,320,603,320,591,320C578.5,320,566,320,554,320C541.5,320,529,320,517,320C504.6,320,492,320,480,320C467.7,320,455,320,443,320C430.8,320,418,320,406,320C393.8,320,382,320,369,320C356.9,320,345,320,332,320C320,320,308,320,295,320C283.1,320,271,320,258,320C246.2,320,234,320,222,320C209.2,320,197,320,185,320C172.3,320,160,320,148,320C135.4,320,123,320,111,320C98.5,320,86,320,74,320C61.5,320,49,320,37,320C24.6,320,12,320,6,320L0,320Z"></path></svg>